<svg id="visual" viewBox="0 0 1920 1200" width="1920" height="1200" xmlns="http://www.w3.org/2000/svg" xmlns:xlink="http://www.w3.org/1999/xlink" version="1.1"><rect x="0" y="0" width="1920" height="1200" fill="#78c2ad"></rect><path d="M0 816L45.7 843.2C91.3 870.3 182.7 924.7 274.2 939.3C365.7 954 457.3 929 548.8 894.5C640.3 860 731.7 816 823 837.5C914.3 859 1005.7 946 1097 968.3C1188.3 990.7 1279.7 948.3 1371.2 906.3C1462.7 864.3 1554.3 822.7 1645.8 800.7C1737.3 778.7 1828.7 776.3 1874.3 775.2L1920 774L1920 1201L1874.3 1201C1828.7 1201 1737.3 1201 1645.8 1201C1554.3 1201 1462.7 1201 1371.2 1201C1279.7 1201 1188.3 1201 1097 1201C1005.7 1201 914.3 1201 823 1201C731.7 1201 640.3 1201 548.8 1201C457.3 1201 365.7 1201 274.2 1201C182.7 1201 91.3 1201 45.7 1201L0 1201Z" fill="#ffffff" stroke-linecap="round" stroke-linejoin="miter"></path></svg>