<svg id="visual" viewBox="0 0 675 400" width="675" height="400" xmlns="http://www.w3.org/2000/svg" xmlns:xlink="http://www.w3.org/1999/xlink" version="1.1"><rect x="0" y="0" width="675" height="400" fill="#78c2ad"></rect><path d="M0 271L16 280.2C32 289.3 64 307.7 96.2 312.7C128.3 317.7 160.7 309.3 192.8 297.8C225 286.3 257 271.7 289.2 278.8C321.3 286 353.7 315 385.8 322.3C418 329.7 450 315.3 482.2 301.3C514.3 287.3 546.7 273.7 578.8 266.3C611 259 643 258 659 257.5L675 257L675 401L659 401C643 401 611 401 578.8 401C546.7 401 514.3 401 482.2 401C450 401 418 401 385.8 401C353.7 401 321.3 401 289.2 401C257 401 225 401 192.8 401C160.7 401 128.3 401 96.2 401C64 401 32 401 16 401L0 401Z" fill="#ffffff" stroke-linecap="round" stroke-linejoin="miter"></path></svg>