<svg id="visual" viewBox="0 0 675 900" width="675" height="900" xmlns="http://www.w3.org/2000/svg" xmlns:xlink="http://www.w3.org/1999/xlink" version="1.1"><rect x="0" y="0" width="675" height="900" fill="#2196f3"></rect><path d="M0 621L16 636.5C32 652 64 683 96.2 706.8C128.3 730.7 160.7 747.3 192.8 740.5C225 733.7 257 703.3 289.2 698.8C321.3 694.3 353.7 715.7 385.8 697.8C418 680 450 623 482.2 624C514.3 625 546.7 684 578.8 708C611 732 643 721 659 715.5L675 710L675 901L659 901C643 901 611 901 578.8 901C546.7 901 514.3 901 482.2 901C450 901 418 901 385.8 901C353.7 901 321.3 901 289.2 901C257 901 225 901 192.8 901C160.7 901 128.3 901 96.2 901C64 901 32 901 16 901L0 901Z" fill="#FFFFFF" stroke-linecap="round" stroke-linejoin="miter"></path></svg>