<svg id="visual" viewBox="0 0 1920 1080" width="1920" height="1080" xmlns="http://www.w3.org/2000/svg" xmlns:xlink="http://www.w3.org/1999/xlink" version="1.1"><rect x="0" y="0" width="1920" height="1080" fill="#2196f3"></rect><path d="M0 746L45.7 764.5C91.3 783 182.7 820 274.2 848.5C365.7 877 457.3 897 548.8 888.8C640.3 880.7 731.7 844.3 823 838.8C914.3 833.3 1005.7 858.7 1097 837.2C1188.3 815.7 1279.7 747.3 1371.2 748.5C1462.7 749.7 1554.3 820.3 1645.8 849.2C1737.3 878 1828.7 865 1874.3 858.5L1920 852L1920 1081L1874.3 1081C1828.7 1081 1737.3 1081 1645.8 1081C1554.3 1081 1462.7 1081 1371.2 1081C1279.7 1081 1188.3 1081 1097 1081C1005.7 1081 914.3 1081 823 1081C731.7 1081 640.3 1081 548.8 1081C457.3 1081 365.7 1081 274.2 1081C182.7 1081 91.3 1081 45.7 1081L0 1081Z" fill="#FFFFFF" stroke-linecap="round" stroke-linejoin="miter"></path></svg>